# MagicaVoxel @ Ephtracy

# group
o 

# material
mtllib boombox.mtl
usemtl palette

# normals
vn -1 0 0
vn 1 0 0
vn 0 0 1
vn 0 0 -1
vn 0 -1 0
vn 0 1 0

# texcoords
vt 0.845703 0.5
vt 0.982422 0.5
vt 0.986328 0.5
vt 0.990234 0.5
vt 0.994141 0.5

# verts
v -0.4 0 1
v -0.4 0 -1
v -0.4 0.8 1
v -0.4 0.8 -1
v -0.1 0.8 0.6
v -0.1 0.8 0.5
v -0.1 0.8 -0.5
v -0.1 0.8 -0.6
v -0.1 1 0.5
v -0.1 1 -0.5
v -0.1 1.1 0.6
v -0.1 1.1 -0.6
v 0.1 0.8 0.6
v 0.1 0.8 0.5
v 0.1 0.8 -0.5
v 0.1 0.8 -0.6
v 0.1 1 0.5
v 0.1 1 -0.5
v 0.1 1.1 0.6
v 0.1 1.1 -0.6
v 0.2 0.2 0.8
v 0.2 0.2 0.4
v 0.2 0.2 -0.4
v 0.2 0.2 -0.8
v 0.2 0.3 0.7
v 0.2 0.3 0.5
v 0.2 0.3 -0.5
v 0.2 0.3 -0.7
v 0.2 0.5 0.7
v 0.2 0.5 0.5
v 0.2 0.5 -0.5
v 0.2 0.5 -0.7
v 0.2 0.6 0.8
v 0.2 0.6 0.4
v 0.2 0.6 -0.4
v 0.2 0.6 -0.8
v 0.3 0.1 0.9
v 0.3 0.1 0.3
v 0.3 0.1 0.2
v 0.3 0.1 -0.2
v 0.3 0.1 -0.3
v 0.3 0.1 -0.9
v 0.3 0.2 0.8
v 0.3 0.2 0.4
v 0.3 0.2 0.1
v 0.3 0.2 -0.1
v 0.3 0.2 -0.4
v 0.3 0.2 -0.8
v 0.3 0.3 0.7
v 0.3 0.3 0.5
v 0.3 0.3 0.1
v 0.3 0.3 -0.1
v 0.3 0.3 -0.5
v 0.3 0.3 -0.7
v 0.3 0.5 0.7
v 0.3 0.5 0.5
v 0.3 0.5 0.2
v 0.3 0.5 -0.2
v 0.3 0.5 -0.5
v 0.3 0.5 -0.7
v 0.3 0.6 0.8
v 0.3 0.6 0.4
v 0.3 0.6 0.2
v 0.3 0.6 0.1
v 0.3 0.6 0
v 0.3 0.6 -0.2
v 0.3 0.6 -0.4
v 0.3 0.6 -0.8
v 0.3 0.7 0.9
v 0.3 0.7 0.3
v 0.3 0.7 0.2
v 0.3 0.7 0.1
v 0.3 0.7 0
v 0.3 0.7 -0.2
v 0.3 0.7 -0.3
v 0.3 0.7 -0.9
v 0.4 0 1
v 0.4 0 -1
v 0.4 0.1 0.9
v 0.4 0.1 0.3
v 0.4 0.1 0.2
v 0.4 0.1 -0.2
v 0.4 0.1 -0.3
v 0.4 0.1 -0.9
v 0.4 0.2 0.1
v 0.4 0.2 -0.1
v 0.4 0.3 0.1
v 0.4 0.3 -0.1
v 0.4 0.5 0.2
v 0.4 0.5 -0.2
v 0.4 0.6 0.2
v 0.4 0.6 -0.2
v 0.4 0.7 0.9
v 0.4 0.7 0.3
v 0.4 0.7 0.2
v 0.4 0.7 -0.2
v 0.4 0.7 -0.3
v 0.4 0.7 -0.9
v 0.4 0.8 1
v 0.4 0.8 -1
v -0.4 0 1
v -0.4 0.8 1
v 0.4 0 1
v 0.4 0.8 1
v 0.2 0.3 0.7
v 0.2 0.5 0.7
v 0.3 0.3 0.7
v 0.3 0.5 0.7
v -0.1 0.8 0.6
v -0.1 1.1 0.6
v 0.1 0.8 0.6
v 0.1 1.1 0.6
v 0.2 0.2 0.4
v 0.2 0.6 0.4
v 0.3 0.2 0.4
v 0.3 0.6 0.4
v 0.3 0.1 0.3
v 0.3 0.7 0.3
v 0.4 0.1 0.3
v 0.4 0.7 0.3
v 0.3 0.2 0.1
v 0.3 0.3 0.1
v 0.4 0.2 0.1
v 0.4 0.3 0.1
v 0.3 0.1 -0.2
v 0.3 0.5 -0.2
v 0.3 0.6 -0.2
v 0.3 0.7 -0.2
v 0.4 0.1 -0.2
v 0.4 0.5 -0.2
v 0.4 0.6 -0.2
v 0.4 0.7 -0.2
v -0.1 0.8 -0.5
v -0.1 1 -0.5
v 0.1 0.8 -0.5
v 0.1 1 -0.5
v 0.2 0.3 -0.5
v 0.2 0.5 -0.5
v 0.3 0.3 -0.5
v 0.3 0.5 -0.5
v 0.2 0.2 -0.8
v 0.2 0.6 -0.8
v 0.3 0.2 -0.8
v 0.3 0.6 -0.8
v 0.3 0.1 -0.9
v 0.3 0.7 -0.9
v 0.4 0.1 -0.9
v 0.4 0.7 -0.9
v 0.3 0.1 0.9
v 0.3 0.7 0.9
v 0.4 0.1 0.9
v 0.4 0.7 0.9
v 0.2 0.2 0.8
v 0.2 0.6 0.8
v 0.3 0.2 0.8
v 0.3 0.6 0.8
v -0.1 0.8 0.5
v -0.1 1 0.5
v 0.1 0.8 0.5
v 0.1 1 0.5
v 0.2 0.3 0.5
v 0.2 0.5 0.5
v 0.3 0.3 0.5
v 0.3 0.5 0.5
v 0.3 0.1 0.2
v 0.3 0.5 0.2
v 0.3 0.6 0.2
v 0.3 0.7 0.2
v 0.4 0.1 0.2
v 0.4 0.5 0.2
v 0.4 0.6 0.2
v 0.4 0.7 0.2
v 0.3 0.2 -0.1
v 0.3 0.3 -0.1
v 0.4 0.2 -0.1
v 0.4 0.3 -0.1
v 0.3 0.1 -0.3
v 0.3 0.7 -0.3
v 0.4 0.1 -0.3
v 0.4 0.7 -0.3
v 0.2 0.2 -0.4
v 0.2 0.6 -0.4
v 0.3 0.2 -0.4
v 0.3 0.6 -0.4
v -0.1 0.8 -0.6
v -0.1 1.1 -0.6
v 0.1 0.8 -0.6
v 0.1 1.1 -0.6
v 0.2 0.3 -0.7
v 0.2 0.5 -0.7
v 0.3 0.3 -0.7
v 0.3 0.5 -0.7
v -0.4 0 -1
v -0.4 0.8 -1
v 0.4 0 -1
v 0.4 0.8 -1
v -0.4 0 1
v 0.4 0 1
v -0.4 0 -1
v 0.4 0 -1
v 0.3 0.2 0.1
v 0.4 0.2 0.1
v 0.3 0.2 -0.1
v 0.4 0.2 -0.1
v 0.2 0.3 0.7
v 0.3 0.3 0.7
v 0.2 0.3 0.5
v 0.3 0.3 0.5
v 0.2 0.3 -0.5
v 0.3 0.3 -0.5
v 0.2 0.3 -0.7
v 0.3 0.3 -0.7
v 0.3 0.5 0.2
v 0.4 0.5 0.2
v 0.3 0.5 -0.2
v 0.4 0.5 -0.2
v 0.2 0.6 0.8
v 0.3 0.6 0.8
v 0.2 0.6 0.4
v 0.3 0.6 0.4
v 0.2 0.6 -0.4
v 0.3 0.6 -0.4
v 0.2 0.6 -0.8
v 0.3 0.6 -0.8
v 0.3 0.7 0.9
v 0.4 0.7 0.9
v 0.3 0.7 0.3
v 0.4 0.7 0.3
v 0.3 0.7 0.2
v 0.4 0.7 0.2
v 0.3 0.7 0.1
v 0.3 0.7 0
v 0.3 0.7 -0.2
v 0.4 0.7 -0.2
v 0.3 0.7 -0.3
v 0.4 0.7 -0.3
v 0.3 0.7 -0.9
v 0.4 0.7 -0.9
v -0.1 1 0.5
v 0.1 1 0.5
v -0.1 1 -0.5
v 0.1 1 -0.5
v 0.3 0.1 0.9
v 0.4 0.1 0.9
v 0.3 0.1 0.3
v 0.4 0.1 0.3
v 0.3 0.1 0.2
v 0.4 0.1 0.2
v 0.3 0.1 -0.2
v 0.4 0.1 -0.2
v 0.3 0.1 -0.3
v 0.4 0.1 -0.3
v 0.3 0.1 -0.9
v 0.4 0.1 -0.9
v 0.2 0.2 0.8
v 0.3 0.2 0.8
v 0.2 0.2 0.4
v 0.3 0.2 0.4
v 0.2 0.2 -0.4
v 0.3 0.2 -0.4
v 0.2 0.2 -0.8
v 0.3 0.2 -0.8
v 0.3 0.3 0.1
v 0.4 0.3 0.1
v 0.3 0.3 -0.1
v 0.4 0.3 -0.1
v 0.2 0.5 0.7
v 0.3 0.5 0.7
v 0.2 0.5 0.5
v 0.3 0.5 0.5
v 0.2 0.5 -0.5
v 0.3 0.5 -0.5
v 0.2 0.5 -0.7
v 0.3 0.5 -0.7
v 0.3 0.6 0.2
v 0.4 0.6 0.2
v 0.3 0.6 0.1
v 0.3 0.6 0
v 0.3 0.6 -0.2
v 0.4 0.6 -0.2
v -0.4 0.8 1
v 0.4 0.8 1
v -0.1 0.8 0.6
v 0.1 0.8 0.6
v -0.1 0.8 0.5
v 0.1 0.8 0.5
v -0.1 0.8 -0.5
v 0.1 0.8 -0.5
v -0.1 0.8 -0.6
v 0.1 0.8 -0.6
v -0.4 0.8 -1
v 0.4 0.8 -1
v -0.1 1.1 0.6
v 0.1 1.1 0.6
v -0.1 1.1 -0.6
v 0.1 1.1 -0.6

# faces
f 3/2/1 2/2/1 1/2/1
f 4/2/1 2/2/1 3/2/1
f 9/3/1 6/3/1 5/3/1
f 10/3/1 8/3/1 7/3/1
f 11/3/1 9/3/1 5/3/1
f 11/3/1 10/3/1 9/3/1
f 12/3/1 8/3/1 10/3/1
f 12/3/1 10/3/1 11/3/1
f 13/3/2 14/3/2 17/3/2
f 15/3/2 16/3/2 18/3/2
f 13/3/2 17/3/2 19/3/2
f 17/3/2 18/3/2 19/3/2
f 18/3/2 16/3/2 20/3/2
f 19/3/2 18/3/2 20/3/2
f 21/4/2 22/4/2 25/4/2
f 25/4/2 22/4/2 26/4/2
f 23/4/2 24/4/2 27/4/2
f 27/4/2 24/4/2 28/4/2
f 21/4/2 25/4/2 29/4/2
f 26/4/2 22/4/2 30/4/2
f 23/4/2 27/4/2 31/4/2
f 28/4/2 24/4/2 32/4/2
f 21/4/2 29/4/2 33/4/2
f 29/4/2 30/4/2 33/4/2
f 30/4/2 22/4/2 34/4/2
f 33/4/2 30/4/2 34/4/2
f 31/4/2 32/4/2 35/4/2
f 23/4/2 31/4/2 35/4/2
f 32/4/2 24/4/2 36/4/2
f 35/4/2 32/4/2 36/4/2
f 37/3/2 38/3/2 43/3/2
f 43/3/2 38/3/2 44/3/2
f 39/3/2 40/3/2 45/3/2
f 45/3/2 40/3/2 46/3/2
f 41/3/2 42/3/2 47/3/2
f 47/3/2 42/3/2 48/3/2
f 39/3/2 45/3/2 51/3/2
f 46/3/2 40/3/2 52/3/2
f 49/3/2 50/3/2 55/3/2
f 55/3/2 50/3/2 56/3/2
f 39/3/2 51/3/2 57/3/2
f 51/3/2 52/3/2 57/3/2
f 52/3/2 40/3/2 58/3/2
f 57/3/2 52/3/2 58/3/2
f 53/3/2 54/3/2 59/3/2
f 59/3/2 54/3/2 60/3/2
f 37/3/2 43/3/2 61/3/2
f 44/3/2 38/3/2 62/3/2
f 41/3/2 47/3/2 67/3/2
f 48/3/2 42/3/2 68/3/2
f 37/3/2 61/3/2 69/3/2
f 61/3/2 62/3/2 69/3/2
f 62/3/2 38/3/2 70/3/2
f 69/3/2 62/3/2 70/3/2
f 63/5/2 64/5/2 71/5/2
f 64/1/2 65/1/2 72/1/2
f 71/5/2 64/5/2 72/5/2
f 65/5/2 66/5/2 73/5/2
f 72/1/2 65/1/2 73/1/2
f 73/5/2 66/5/2 74/5/2
f 41/3/2 67/3/2 75/3/2
f 67/3/2 68/3/2 75/3/2
f 68/3/2 42/3/2 76/3/2
f 75/3/2 68/3/2 76/3/2
f 77/2/2 78/2/2 79/2/2
f 79/2/2 78/2/2 80/2/2
f 80/2/2 78/2/2 81/2/2
f 81/2/2 78/2/2 82/2/2
f 82/2/2 78/2/2 83/2/2
f 83/2/2 78/2/2 84/2/2
f 85/5/2 86/5/2 87/5/2
f 87/5/2 86/5/2 88/5/2
f 80/2/2 81/2/2 89/2/2
f 82/2/2 83/2/2 90/2/2
f 80/2/2 89/2/2 91/2/2
f 89/2/2 90/2/2 91/2/2
f 90/2/2 83/2/2 92/2/2
f 91/2/2 90/2/2 92/2/2
f 77/2/2 79/2/2 93/2/2
f 80/2/2 91/2/2 94/2/2
f 94/2/2 91/2/2 95/2/2
f 92/2/2 83/2/2 96/2/2
f 96/2/2 83/2/2 97/2/2
f 84/2/2 78/2/2 98/2/2
f 94/2/2 95/2/2 99/2/2
f 97/2/2 98/2/2 99/2/2
f 96/2/2 97/2/2 99/2/2
f 77/2/2 93/2/2 99/2/2
f 95/2/2 96/2/2 99/2/2
f 93/2/2 94/2/2 99/2/2
f 98/2/2 78/2/2 100/2/2
f 99/2/2 98/2/2 100/2/2
f 103/2/3 102/2/3 101/2/3
f 104/2/3 102/2/3 103/2/3
f 107/3/3 106/3/3 105/3/3
f 108/3/3 106/3/3 107/3/3
f 111/3/3 110/3/3 109/3/3
f 112/3/3 110/3/3 111/3/3
f 115/3/3 114/3/3 113/3/3
f 116/3/3 114/3/3 115/3/3
f 119/2/3 118/2/3 117/2/3
f 120/2/3 118/2/3 119/2/3
f 123/5/3 122/5/3 121/5/3
f 124/5/3 122/5/3 123/5/3
f 129/2/3 126/2/3 125/2/3
f 130/2/3 126/2/3 129/2/3
f 131/2/3 128/2/3 127/2/3
f 132/2/3 128/2/3 131/2/3
f 135/3/3 134/3/3 133/3/3
f 136/3/3 134/3/3 135/3/3
f 139/3/3 138/3/3 137/3/3
f 140/3/3 138/3/3 139/3/3
f 143/3/3 142/3/3 141/3/3
f 144/3/3 142/3/3 143/3/3
f 147/2/3 146/2/3 145/2/3
f 148/2/3 146/2/3 147/2/3
f 149/2/4 150/2/4 151/2/4
f 151/2/4 150/2/4 152/2/4
f 153/3/4 154/3/4 155/3/4
f 155/3/4 154/3/4 156/3/4
f 157/3/4 158/3/4 159/3/4
f 159/3/4 158/3/4 160/3/4
f 161/3/4 162/3/4 163/3/4
f 163/3/4 162/3/4 164/3/4
f 165/2/4 166/2/4 169/2/4
f 169/2/4 166/2/4 170/2/4
f 167/2/4 168/2/4 171/2/4
f 171/2/4 168/2/4 172/2/4
f 173/5/4 174/5/4 175/5/4
f 175/5/4 174/5/4 176/5/4
f 177/2/4 178/2/4 179/2/4
f 179/2/4 178/2/4 180/2/4
f 181/3/4 182/3/4 183/3/4
f 183/3/4 182/3/4 184/3/4
f 185/3/4 186/3/4 187/3/4
f 187/3/4 186/3/4 188/3/4
f 189/3/4 190/3/4 191/3/4
f 191/3/4 190/3/4 192/3/4
f 193/2/4 194/2/4 195/2/4
f 195/2/4 194/2/4 196/2/4
f 199/2/5 198/2/5 197/2/5
f 200/2/5 198/2/5 199/2/5
f 203/5/5 202/5/5 201/5/5
f 204/5/5 202/5/5 203/5/5
f 207/3/5 206/3/5 205/3/5
f 208/3/5 206/3/5 207/3/5
f 211/3/5 210/3/5 209/3/5
f 212/3/5 210/3/5 211/3/5
f 215/2/5 214/2/5 213/2/5
f 216/2/5 214/2/5 215/2/5
f 219/3/5 218/3/5 217/3/5
f 220/3/5 218/3/5 219/3/5
f 223/3/5 222/3/5 221/3/5
f 224/3/5 222/3/5 223/3/5
f 227/2/5 226/2/5 225/2/5
f 228/2/5 226/2/5 227/2/5
f 231/2/5 230/2/5 229/2/5
f 232/2/5 230/2/5 231/2/5
f 233/2/5 230/2/5 232/2/5
f 234/2/5 230/2/5 233/2/5
f 237/2/5 236/2/5 235/2/5
f 238/2/5 236/2/5 237/2/5
f 241/3/5 240/3/5 239/3/5
f 242/3/5 240/3/5 241/3/5
f 243/2/6 244/2/6 245/2/6
f 245/2/6 244/2/6 246/2/6
f 247/2/6 248/2/6 249/2/6
f 249/2/6 248/2/6 250/2/6
f 251/2/6 252/2/6 253/2/6
f 253/2/6 252/2/6 254/2/6
f 255/3/6 256/3/6 257/3/6
f 257/3/6 256/3/6 258/3/6
f 259/3/6 260/3/6 261/3/6
f 261/3/6 260/3/6 262/3/6
f 263/5/6 264/5/6 265/5/6
f 265/5/6 264/5/6 266/5/6
f 267/3/6 268/3/6 269/3/6
f 269/3/6 268/3/6 270/3/6
f 271/3/6 272/3/6 273/3/6
f 273/3/6 272/3/6 274/3/6
f 275/2/6 276/2/6 277/2/6
f 277/2/6 276/2/6 278/2/6
f 278/2/6 276/2/6 279/2/6
f 279/2/6 276/2/6 280/2/6
f 281/2/6 282/2/6 283/2/6
f 283/2/6 282/2/6 284/2/6
f 281/2/6 283/2/6 285/2/6
f 284/2/6 282/2/6 286/2/6
f 281/2/6 285/2/6 287/2/6
f 285/2/6 286/2/6 287/2/6
f 286/2/6 282/2/6 288/2/6
f 287/2/6 286/2/6 288/2/6
f 281/2/6 287/2/6 289/2/6
f 288/2/6 282/2/6 290/2/6
f 281/2/6 289/2/6 291/2/6
f 289/2/6 290/2/6 291/2/6
f 290/2/6 282/2/6 292/2/6
f 291/2/6 290/2/6 292/2/6
f 293/3/6 294/3/6 295/3/6
f 295/3/6 294/3/6 296/3/6
